<mxfile host="app.diagrams.net" modified="2024-06-21T09:48:22.979Z" agent="Mozilla/5.0 (Windows NT 10.0; Win64; x64) AppleWebKit/537.36 (KHTML, like Gecko) Chrome/125.0.0.0 Safari/537.36" etag="-fsw9-meIy6mNItYQcsI" version="24.6.0" type="device">
  <diagram name="Page-1" id="u_7p21aMZxE_CRsIccEX">
    <mxGraphModel dx="2899" dy="2214" grid="1" gridSize="10" guides="1" tooltips="1" connect="1" arrows="1" fold="1" page="1" pageScale="1" pageWidth="850" pageHeight="1100" math="0" shadow="0">
      <root>
        <mxCell id="0" />
        <mxCell id="1" parent="0" />
        <mxCell id="ikV-Uy9xvwKs0s9qoLuN-4" style="edgeStyle=orthogonalEdgeStyle;rounded=0;orthogonalLoop=1;jettySize=auto;html=1;dashed=1;strokeWidth=2;flowAnimation=1;" parent="1" source="ikV-Uy9xvwKs0s9qoLuN-1" edge="1">
          <mxGeometry relative="1" as="geometry">
            <mxPoint x="240" y="259" as="targetPoint" />
          </mxGeometry>
        </mxCell>
        <mxCell id="ikV-Uy9xvwKs0s9qoLuN-1" value="CloudWatch Logs" style="sketch=0;outlineConnect=0;fontColor=#232F3E;gradientColor=none;fillColor=#E7157B;strokeColor=none;dashed=0;verticalLabelPosition=bottom;verticalAlign=top;align=center;html=1;fontSize=12;fontStyle=0;aspect=fixed;pointerEvents=1;shape=mxgraph.aws4.cloudwatch_logs;" parent="1" vertex="1">
          <mxGeometry x="40" y="230" width="80.69" height="60" as="geometry" />
        </mxCell>
        <mxCell id="PIVFtoO5854Ndbtr9ssA-17" style="edgeStyle=orthogonalEdgeStyle;rounded=0;orthogonalLoop=1;jettySize=auto;html=1;strokeWidth=2;flowAnimation=1;" parent="1" source="ikV-Uy9xvwKs0s9qoLuN-2" edge="1">
          <mxGeometry relative="1" as="geometry">
            <mxPoint x="420" y="259" as="targetPoint" />
          </mxGeometry>
        </mxCell>
        <mxCell id="ikV-Uy9xvwKs0s9qoLuN-2" value="" style="sketch=0;points=[[0,0,0],[0.25,0,0],[0.5,0,0],[0.75,0,0],[1,0,0],[0,1,0],[0.25,1,0],[0.5,1,0],[0.75,1,0],[1,1,0],[0,0.25,0],[0,0.5,0],[0,0.75,0],[1,0.25,0],[1,0.5,0],[1,0.75,0]];outlineConnect=0;fontColor=#232F3E;fillColor=#ED7100;strokeColor=#ffffff;dashed=0;verticalLabelPosition=bottom;verticalAlign=top;align=center;html=1;fontSize=12;fontStyle=0;aspect=fixed;shape=mxgraph.aws4.resourceIcon;resIcon=mxgraph.aws4.lambda;" parent="1" vertex="1">
          <mxGeometry x="240" y="220" width="78" height="78" as="geometry" />
        </mxCell>
        <mxCell id="ikV-Uy9xvwKs0s9qoLuN-3" value="ElasticSearch" style="sketch=0;points=[[0,0,0],[0.25,0,0],[0.5,0,0],[0.75,0,0],[1,0,0],[0,1,0],[0.25,1,0],[0.5,1,0],[0.75,1,0],[1,1,0],[0,0.25,0],[0,0.5,0],[0,0.75,0],[1,0.25,0],[1,0.5,0],[1,0.75,0]];outlineConnect=0;fontColor=#232F3E;fillColor=#8C4FFF;strokeColor=#ffffff;dashed=0;verticalLabelPosition=bottom;verticalAlign=top;align=center;html=1;fontSize=12;fontStyle=0;aspect=fixed;shape=mxgraph.aws4.resourceIcon;resIcon=mxgraph.aws4.elasticsearch_service;" parent="1" vertex="1">
          <mxGeometry x="425" y="220" width="78" height="78" as="geometry" />
        </mxCell>
        <mxCell id="PIVFtoO5854Ndbtr9ssA-22" style="edgeStyle=orthogonalEdgeStyle;rounded=0;orthogonalLoop=1;jettySize=auto;html=1;strokeWidth=2;flowAnimation=1;" parent="1" source="ikV-Uy9xvwKs0s9qoLuN-7" edge="1">
          <mxGeometry relative="1" as="geometry">
            <mxPoint x="420" y="419" as="targetPoint" />
          </mxGeometry>
        </mxCell>
        <mxCell id="ikV-Uy9xvwKs0s9qoLuN-7" value="CloudWatch Logs" style="sketch=0;outlineConnect=0;fontColor=#232F3E;gradientColor=none;fillColor=#E7157B;strokeColor=none;dashed=0;verticalLabelPosition=bottom;verticalAlign=top;align=center;html=1;fontSize=12;fontStyle=0;aspect=fixed;pointerEvents=1;shape=mxgraph.aws4.cloudwatch_logs;" parent="1" vertex="1">
          <mxGeometry x="250" y="390" width="78" height="58" as="geometry" />
        </mxCell>
        <mxCell id="PIVFtoO5854Ndbtr9ssA-21" style="edgeStyle=orthogonalEdgeStyle;rounded=0;orthogonalLoop=1;jettySize=auto;html=1;strokeWidth=2;flowAnimation=1;" parent="1" source="ikV-Uy9xvwKs0s9qoLuN-8" edge="1">
          <mxGeometry relative="1" as="geometry">
            <mxPoint x="240" y="419" as="targetPoint" />
          </mxGeometry>
        </mxCell>
        <mxCell id="ikV-Uy9xvwKs0s9qoLuN-8" value="CloudTrail" style="sketch=0;points=[[0,0,0],[0.25,0,0],[0.5,0,0],[0.75,0,0],[1,0,0],[0,1,0],[0.25,1,0],[0.5,1,0],[0.75,1,0],[1,1,0],[0,0.25,0],[0,0.5,0],[0,0.75,0],[1,0.25,0],[1,0.5,0],[1,0.75,0]];points=[[0,0,0],[0.25,0,0],[0.5,0,0],[0.75,0,0],[1,0,0],[0,1,0],[0.25,1,0],[0.5,1,0],[0.75,1,0],[1,1,0],[0,0.25,0],[0,0.5,0],[0,0.75,0],[1,0.25,0],[1,0.5,0],[1,0.75,0]];outlineConnect=0;fontColor=#232F3E;fillColor=#E7157B;strokeColor=#ffffff;dashed=0;verticalLabelPosition=bottom;verticalAlign=top;align=center;html=1;fontSize=12;fontStyle=0;aspect=fixed;shape=mxgraph.aws4.resourceIcon;resIcon=mxgraph.aws4.cloudtrail;" parent="1" vertex="1">
          <mxGeometry x="30" y="380" width="78" height="78" as="geometry" />
        </mxCell>
        <mxCell id="ikV-Uy9xvwKs0s9qoLuN-9" value="" style="sketch=0;points=[[0,0,0],[0.25,0,0],[0.5,0,0],[0.75,0,0],[1,0,0],[0,1,0],[0.25,1,0],[0.5,1,0],[0.75,1,0],[1,1,0],[0,0.25,0],[0,0.5,0],[0,0.75,0],[1,0.25,0],[1,0.5,0],[1,0.75,0]];outlineConnect=0;fontColor=#232F3E;fillColor=#ED7100;strokeColor=#ffffff;dashed=0;verticalLabelPosition=bottom;verticalAlign=top;align=center;html=1;fontSize=12;fontStyle=0;aspect=fixed;shape=mxgraph.aws4.resourceIcon;resIcon=mxgraph.aws4.lambda;" parent="1" vertex="1">
          <mxGeometry x="425" y="380" width="78" height="78" as="geometry" />
        </mxCell>
        <mxCell id="ikV-Uy9xvwKs0s9qoLuN-25" style="edgeStyle=orthogonalEdgeStyle;rounded=0;orthogonalLoop=1;jettySize=auto;html=1;dashed=1;strokeWidth=2;flowAnimation=1;" parent="1" source="ikV-Uy9xvwKs0s9qoLuN-13" edge="1">
          <mxGeometry relative="1" as="geometry">
            <mxPoint x="190" y="-134" as="targetPoint" />
          </mxGeometry>
        </mxCell>
        <mxCell id="ikV-Uy9xvwKs0s9qoLuN-13" value="Elastic Load Balancer" style="outlineConnect=0;dashed=0;verticalLabelPosition=bottom;verticalAlign=top;align=center;html=1;shape=mxgraph.aws3.application_load_balancer;fillColor=#F58536;gradientColor=none;" parent="1" vertex="1">
          <mxGeometry x="40" y="-170" width="69" height="72" as="geometry" />
        </mxCell>
        <mxCell id="ikV-Uy9xvwKs0s9qoLuN-26" style="edgeStyle=orthogonalEdgeStyle;rounded=0;orthogonalLoop=1;jettySize=auto;html=1;strokeWidth=2;dashed=1;flowAnimation=1;" parent="1" source="ikV-Uy9xvwKs0s9qoLuN-14" edge="1">
          <mxGeometry relative="1" as="geometry">
            <mxPoint x="400" y="-131" as="targetPoint" />
          </mxGeometry>
        </mxCell>
        <mxCell id="ikV-Uy9xvwKs0s9qoLuN-14" value="S3" style="sketch=0;points=[[0,0,0],[0.25,0,0],[0.5,0,0],[0.75,0,0],[1,0,0],[0,1,0],[0.25,1,0],[0.5,1,0],[0.75,1,0],[1,1,0],[0,0.25,0],[0,0.5,0],[0,0.75,0],[1,0.25,0],[1,0.5,0],[1,0.75,0]];outlineConnect=0;fontColor=#232F3E;fillColor=#7AA116;strokeColor=#ffffff;dashed=0;verticalLabelPosition=bottom;verticalAlign=top;align=center;html=1;fontSize=12;fontStyle=0;aspect=fixed;shape=mxgraph.aws4.resourceIcon;resIcon=mxgraph.aws4.s3;" parent="1" vertex="1">
          <mxGeometry x="200" y="-170" width="78" height="78" as="geometry" />
        </mxCell>
        <mxCell id="ikV-Uy9xvwKs0s9qoLuN-27" style="edgeStyle=orthogonalEdgeStyle;rounded=0;orthogonalLoop=1;jettySize=auto;html=1;dashed=1;strokeWidth=2;flowAnimation=1;" parent="1" source="ikV-Uy9xvwKs0s9qoLuN-15" edge="1">
          <mxGeometry relative="1" as="geometry">
            <mxPoint x="464" y="-40" as="targetPoint" />
          </mxGeometry>
        </mxCell>
        <mxCell id="ikV-Uy9xvwKs0s9qoLuN-15" value="" style="sketch=0;points=[[0,0,0],[0.25,0,0],[0.5,0,0],[0.75,0,0],[1,0,0],[0,1,0],[0.25,1,0],[0.5,1,0],[0.75,1,0],[1,1,0],[0,0.25,0],[0,0.5,0],[0,0.75,0],[1,0.25,0],[1,0.5,0],[1,0.75,0]];outlineConnect=0;fontColor=#232F3E;fillColor=#ED7100;strokeColor=#ffffff;dashed=0;verticalLabelPosition=bottom;verticalAlign=top;align=center;html=1;fontSize=12;fontStyle=0;aspect=fixed;shape=mxgraph.aws4.resourceIcon;resIcon=mxgraph.aws4.lambda;" parent="1" vertex="1">
          <mxGeometry x="425" y="-170" width="78" height="78" as="geometry" />
        </mxCell>
        <mxCell id="ikV-Uy9xvwKs0s9qoLuN-28" style="edgeStyle=orthogonalEdgeStyle;rounded=0;orthogonalLoop=1;jettySize=auto;html=1;strokeWidth=2;flowAnimation=1;" parent="1" source="ikV-Uy9xvwKs0s9qoLuN-22" edge="1">
          <mxGeometry relative="1" as="geometry">
            <mxPoint x="464" y="70" as="targetPoint" />
          </mxGeometry>
        </mxCell>
        <mxCell id="ikV-Uy9xvwKs0s9qoLuN-22" value="" style="sketch=0;outlineConnect=0;fontColor=#232F3E;gradientColor=none;fillColor=#E7157B;strokeColor=none;dashed=0;verticalLabelPosition=bottom;verticalAlign=top;align=center;html=1;fontSize=12;fontStyle=0;aspect=fixed;pointerEvents=1;shape=mxgraph.aws4.cloudwatch_logs;" parent="1" vertex="1">
          <mxGeometry x="425" y="-30" width="78" height="58" as="geometry" />
        </mxCell>
        <mxCell id="ikV-Uy9xvwKs0s9qoLuN-29" style="edgeStyle=orthogonalEdgeStyle;rounded=0;orthogonalLoop=1;jettySize=auto;html=1;strokeWidth=2;flowAnimation=1;" parent="1" source="ikV-Uy9xvwKs0s9qoLuN-23" edge="1">
          <mxGeometry relative="1" as="geometry">
            <mxPoint x="464" y="210" as="targetPoint" />
          </mxGeometry>
        </mxCell>
        <mxCell id="ikV-Uy9xvwKs0s9qoLuN-23" value="" style="sketch=0;points=[[0,0,0],[0.25,0,0],[0.5,0,0],[0.75,0,0],[1,0,0],[0,1,0],[0.25,1,0],[0.5,1,0],[0.75,1,0],[1,1,0],[0,0.25,0],[0,0.5,0],[0,0.75,0],[1,0.25,0],[1,0.5,0],[1,0.75,0]];outlineConnect=0;fontColor=#232F3E;fillColor=#ED7100;strokeColor=#ffffff;dashed=0;verticalLabelPosition=bottom;verticalAlign=top;align=center;html=1;fontSize=12;fontStyle=0;aspect=fixed;shape=mxgraph.aws4.resourceIcon;resIcon=mxgraph.aws4.lambda;" parent="1" vertex="1">
          <mxGeometry x="425" y="80" width="78" height="78" as="geometry" />
        </mxCell>
        <mxCell id="ikV-Uy9xvwKs0s9qoLuN-30" value="engineers" style="outlineConnect=0;dashed=0;verticalLabelPosition=bottom;verticalAlign=top;align=center;html=1;shape=mxgraph.aws3.users;fillColor=#D2D3D3;gradientColor=none;" parent="1" vertex="1">
          <mxGeometry x="515" y="570" width="66" height="63" as="geometry" />
        </mxCell>
        <mxCell id="ikV-Uy9xvwKs0s9qoLuN-32" value="SES" style="sketch=0;points=[[0,0,0],[0.25,0,0],[0.5,0,0],[0.75,0,0],[1,0,0],[0,1,0],[0.25,1,0],[0.5,1,0],[0.75,1,0],[1,1,0],[0,0.25,0],[0,0.5,0],[0,0.75,0],[1,0.25,0],[1,0.5,0],[1,0.75,0]];outlineConnect=0;fontColor=#232F3E;fillColor=#DD344C;strokeColor=#ffffff;dashed=0;verticalLabelPosition=bottom;verticalAlign=top;align=center;html=1;fontSize=12;fontStyle=0;aspect=fixed;shape=mxgraph.aws4.resourceIcon;resIcon=mxgraph.aws4.simple_email_service;" parent="1" vertex="1">
          <mxGeometry x="503" y="380" width="78" height="78" as="geometry" />
        </mxCell>
        <mxCell id="ikV-Uy9xvwKs0s9qoLuN-42" value="" style="endArrow=classic;html=1;rounded=0;flowAnimation=1;strokeWidth=2;" parent="1" edge="1">
          <mxGeometry width="50" height="50" relative="1" as="geometry">
            <mxPoint x="463.5" y="380" as="sourcePoint" />
            <mxPoint x="463.5" y="320" as="targetPoint" />
          </mxGeometry>
        </mxCell>
        <mxCell id="PIVFtoO5854Ndbtr9ssA-1" value="" style="edgeStyle=orthogonalEdgeStyle;rounded=0;orthogonalLoop=1;jettySize=auto;html=1;flowAnimation=1;strokeWidth=2;" parent="1" source="ikV-Uy9xvwKs0s9qoLuN-43" target="ikV-Uy9xvwKs0s9qoLuN-44" edge="1">
          <mxGeometry relative="1" as="geometry" />
        </mxCell>
        <mxCell id="ikV-Uy9xvwKs0s9qoLuN-43" value="GuardDuty" style="sketch=0;points=[[0,0,0],[0.25,0,0],[0.5,0,0],[0.75,0,0],[1,0,0],[0,1,0],[0.25,1,0],[0.5,1,0],[0.75,1,0],[1,1,0],[0,0.25,0],[0,0.5,0],[0,0.75,0],[1,0.25,0],[1,0.5,0],[1,0.75,0]];outlineConnect=0;fontColor=#232F3E;fillColor=#DD344C;strokeColor=#ffffff;dashed=0;verticalLabelPosition=bottom;verticalAlign=top;align=center;html=1;fontSize=12;fontStyle=0;aspect=fixed;shape=mxgraph.aws4.resourceIcon;resIcon=mxgraph.aws4.guardduty;" parent="1" vertex="1">
          <mxGeometry x="830" y="-30" width="78" height="78" as="geometry" />
        </mxCell>
        <mxCell id="ikV-Uy9xvwKs0s9qoLuN-44" value="Event" style="sketch=0;points=[[0,0,0],[0.25,0,0],[0.5,0,0],[0.75,0,0],[1,0,0],[0,1,0],[0.25,1,0],[0.5,1,0],[0.75,1,0],[1,1,0],[0,0.25,0],[0,0.5,0],[0,0.75,0],[1,0.25,0],[1,0.5,0],[1,0.75,0]];outlineConnect=0;fontColor=#232F3E;fillColor=#E7157B;strokeColor=#ffffff;dashed=0;verticalLabelPosition=bottom;verticalAlign=top;align=center;html=1;fontSize=12;fontStyle=0;aspect=fixed;shape=mxgraph.aws4.resourceIcon;resIcon=mxgraph.aws4.eventbridge;" parent="1" vertex="1">
          <mxGeometry x="650" y="-30" width="78" height="78" as="geometry" />
        </mxCell>
        <mxCell id="ikV-Uy9xvwKs0s9qoLuN-45" value="" style="sketch=0;points=[[0,0,0],[0.25,0,0],[0.5,0,0],[0.75,0,0],[1,0,0],[0,1,0],[0.25,1,0],[0.5,1,0],[0.75,1,0],[1,1,0],[0,0.25,0],[0,0.5,0],[0,0.75,0],[1,0.25,0],[1,0.5,0],[1,0.75,0]];outlineConnect=0;fontColor=#232F3E;fillColor=#ED7100;strokeColor=#ffffff;dashed=0;verticalLabelPosition=bottom;verticalAlign=top;align=center;html=1;fontSize=12;fontStyle=0;aspect=fixed;shape=mxgraph.aws4.resourceIcon;resIcon=mxgraph.aws4.lambda;" parent="1" vertex="1">
          <mxGeometry x="650" y="142" width="78" height="78" as="geometry" />
        </mxCell>
        <mxCell id="ikV-Uy9xvwKs0s9qoLuN-46" value="SES" style="sketch=0;points=[[0,0,0],[0.25,0,0],[0.5,0,0],[0.75,0,0],[1,0,0],[0,1,0],[0.25,1,0],[0.5,1,0],[0.75,1,0],[1,1,0],[0,0.25,0],[0,0.5,0],[0,0.75,0],[1,0.25,0],[1,0.5,0],[1,0.75,0]];outlineConnect=0;fontColor=#232F3E;fillColor=#DD344C;strokeColor=#ffffff;dashed=0;verticalLabelPosition=bottom;verticalAlign=top;align=center;html=1;fontSize=12;fontStyle=0;aspect=fixed;shape=mxgraph.aws4.resourceIcon;resIcon=mxgraph.aws4.simple_email_service;" parent="1" vertex="1">
          <mxGeometry x="728" y="142" width="78" height="78" as="geometry" />
        </mxCell>
        <mxCell id="PIVFtoO5854Ndbtr9ssA-3" style="edgeStyle=orthogonalEdgeStyle;rounded=0;orthogonalLoop=1;jettySize=auto;html=1;strokeWidth=2;flowAnimation=1;" parent="1" edge="1">
          <mxGeometry relative="1" as="geometry">
            <mxPoint x="688.5" y="140" as="targetPoint" />
            <mxPoint x="689" y="80" as="sourcePoint" />
          </mxGeometry>
        </mxCell>
        <mxCell id="PIVFtoO5854Ndbtr9ssA-4" style="edgeStyle=orthogonalEdgeStyle;rounded=0;orthogonalLoop=1;jettySize=auto;html=1;entryX=1;entryY=0.5;entryDx=0;entryDy=0;entryPerimeter=0;strokeWidth=2;flowAnimation=1;" parent="1" target="ikV-Uy9xvwKs0s9qoLuN-30" edge="1">
          <mxGeometry relative="1" as="geometry">
            <mxPoint x="767" y="250" as="sourcePoint" />
            <Array as="points">
              <mxPoint x="767" y="602" />
            </Array>
          </mxGeometry>
        </mxCell>
        <mxCell id="PIVFtoO5854Ndbtr9ssA-5" style="edgeStyle=orthogonalEdgeStyle;rounded=0;orthogonalLoop=1;jettySize=auto;html=1;entryX=1;entryY=0.5;entryDx=0;entryDy=0;entryPerimeter=0;strokeWidth=2;flowAnimation=1;" parent="1" source="ikV-Uy9xvwKs0s9qoLuN-45" target="ikV-Uy9xvwKs0s9qoLuN-3" edge="1">
          <mxGeometry relative="1" as="geometry" />
        </mxCell>
        <mxCell id="PIVFtoO5854Ndbtr9ssA-14" style="edgeStyle=orthogonalEdgeStyle;rounded=0;orthogonalLoop=1;jettySize=auto;html=1;endArrow=none;endFill=0;strokeWidth=2;flowAnimation=1;" parent="1" source="PIVFtoO5854Ndbtr9ssA-6" edge="1">
          <mxGeometry relative="1" as="geometry">
            <mxPoint x="-90" y="260" as="targetPoint" />
          </mxGeometry>
        </mxCell>
        <mxCell id="PIVFtoO5854Ndbtr9ssA-6" value="EC2" style="sketch=0;points=[[0,0,0],[0.25,0,0],[0.5,0,0],[0.75,0,0],[1,0,0],[0,1,0],[0.25,1,0],[0.5,1,0],[0.75,1,0],[1,1,0],[0,0.25,0],[0,0.5,0],[0,0.75,0],[1,0.25,0],[1,0.5,0],[1,0.75,0]];outlineConnect=0;fontColor=#232F3E;fillColor=#ED7100;strokeColor=#ffffff;dashed=0;verticalLabelPosition=bottom;verticalAlign=top;align=center;html=1;fontSize=12;fontStyle=0;aspect=fixed;shape=mxgraph.aws4.resourceIcon;resIcon=mxgraph.aws4.ec2;" parent="1" vertex="1">
          <mxGeometry x="-270" y="100" width="78" height="78" as="geometry" />
        </mxCell>
        <mxCell id="PIVFtoO5854Ndbtr9ssA-20" style="edgeStyle=orthogonalEdgeStyle;rounded=0;orthogonalLoop=1;jettySize=auto;html=1;strokeWidth=2;flowAnimation=1;" parent="1" source="PIVFtoO5854Ndbtr9ssA-7" edge="1">
          <mxGeometry relative="1" as="geometry">
            <mxPoint x="240" y="-70" as="targetPoint" />
          </mxGeometry>
        </mxCell>
        <mxCell id="PIVFtoO5854Ndbtr9ssA-7" value="CloudFront" style="sketch=0;points=[[0,0,0],[0.25,0,0],[0.5,0,0],[0.75,0,0],[1,0,0],[0,1,0],[0.25,1,0],[0.5,1,0],[0.75,1,0],[1,1,0],[0,0.25,0],[0,0.5,0],[0,0.75,0],[1,0.25,0],[1,0.5,0],[1,0.75,0]];outlineConnect=0;fontColor=#232F3E;fillColor=#8C4FFF;strokeColor=#ffffff;dashed=0;verticalLabelPosition=bottom;verticalAlign=top;align=center;html=1;fontSize=12;fontStyle=0;aspect=fixed;shape=mxgraph.aws4.resourceIcon;resIcon=mxgraph.aws4.cloudfront;" parent="1" vertex="1">
          <mxGeometry x="35.5" y="-60" width="78" height="78" as="geometry" />
        </mxCell>
        <mxCell id="PIVFtoO5854Ndbtr9ssA-12" style="edgeStyle=orthogonalEdgeStyle;rounded=0;orthogonalLoop=1;jettySize=auto;html=1;flowAnimation=1;strokeWidth=2;" parent="1" source="PIVFtoO5854Ndbtr9ssA-9" edge="1">
          <mxGeometry relative="1" as="geometry">
            <mxPoint x="30" y="259" as="targetPoint" />
          </mxGeometry>
        </mxCell>
        <mxCell id="PIVFtoO5854Ndbtr9ssA-9" value="ECS" style="sketch=0;points=[[0,0,0],[0.25,0,0],[0.5,0,0],[0.75,0,0],[1,0,0],[0,1,0],[0.25,1,0],[0.5,1,0],[0.75,1,0],[1,1,0],[0,0.25,0],[0,0.5,0],[0,0.75,0],[1,0.25,0],[1,0.5,0],[1,0.75,0]];outlineConnect=0;fontColor=#232F3E;fillColor=#ED7100;strokeColor=#ffffff;dashed=0;verticalLabelPosition=bottom;verticalAlign=top;align=center;html=1;fontSize=12;fontStyle=0;aspect=fixed;shape=mxgraph.aws4.resourceIcon;resIcon=mxgraph.aws4.ecs;" parent="1" vertex="1">
          <mxGeometry x="-270" y="220" width="78" height="78" as="geometry" />
        </mxCell>
        <mxCell id="PIVFtoO5854Ndbtr9ssA-15" style="edgeStyle=orthogonalEdgeStyle;rounded=0;orthogonalLoop=1;jettySize=auto;html=1;endArrow=none;endFill=0;flowAnimation=1;strokeWidth=2;" parent="1" source="PIVFtoO5854Ndbtr9ssA-10" edge="1">
          <mxGeometry relative="1" as="geometry">
            <mxPoint x="-90" y="260" as="targetPoint" />
          </mxGeometry>
        </mxCell>
        <mxCell id="PIVFtoO5854Ndbtr9ssA-10" value="EKS" style="sketch=0;points=[[0,0,0],[0.25,0,0],[0.5,0,0],[0.75,0,0],[1,0,0],[0,1,0],[0.25,1,0],[0.5,1,0],[0.75,1,0],[1,1,0],[0,0.25,0],[0,0.5,0],[0,0.75,0],[1,0.25,0],[1,0.5,0],[1,0.75,0]];outlineConnect=0;fontColor=#232F3E;fillColor=#ED7100;strokeColor=#ffffff;dashed=0;verticalLabelPosition=bottom;verticalAlign=top;align=center;html=1;fontSize=12;fontStyle=0;aspect=fixed;shape=mxgraph.aws4.resourceIcon;resIcon=mxgraph.aws4.eks;" parent="1" vertex="1">
          <mxGeometry x="-270" y="340" width="78" height="78" as="geometry" />
        </mxCell>
        <mxCell id="PIVFtoO5854Ndbtr9ssA-23" value="" style="sketch=0;points=[[0,0,0],[0.25,0,0],[0.5,0,0],[0.75,0,0],[1,0,0],[0,1,0],[0.25,1,0],[0.5,1,0],[0.75,1,0],[1,1,0],[0,0.25,0],[0,0.5,0],[0,0.75,0],[1,0.25,0],[1,0.5,0],[1,0.75,0]];outlineConnect=0;fontColor=#232F3E;fillColor=#DD344C;strokeColor=#ffffff;dashed=0;verticalLabelPosition=bottom;verticalAlign=top;align=center;html=1;fontSize=12;fontStyle=0;aspect=fixed;shape=mxgraph.aws4.resourceIcon;resIcon=mxgraph.aws4.simple_email_service;" parent="1" vertex="1">
          <mxGeometry x="240" y="142" width="78" height="78" as="geometry" />
        </mxCell>
        <mxCell id="PIVFtoO5854Ndbtr9ssA-25" style="edgeStyle=orthogonalEdgeStyle;rounded=0;orthogonalLoop=1;jettySize=auto;html=1;strokeWidth=2;flowAnimation=1;" parent="1" edge="1">
          <mxGeometry relative="1" as="geometry">
            <mxPoint x="548" y="560" as="targetPoint" />
            <mxPoint x="547.5" y="490" as="sourcePoint" />
          </mxGeometry>
        </mxCell>
      </root>
    </mxGraphModel>
  </diagram>
</mxfile>
